<svg width="77" height="27" viewBox="0 0 77 27" fill="none" xmlns="http://www.w3.org/2000/svg">
<path d="M19.4171 2.024C20.0411 2.336 20.4011 2.828 20.4971 3.5C20.6171 4.172 20.4491 4.784 19.9931 5.336C19.6811 5.768 19.2731 6.008 18.7691 6.056C18.2891 6.104 17.7971 6.008 17.2931 5.768C16.7171 5.504 16.1051 5.3 15.4571 5.156C14.8331 5.012 14.1731 4.94 13.4771 4.94C12.1811 4.94 11.0171 5.144 9.98511 5.552C8.97711 5.96 8.11311 6.548 7.39311 7.316C6.67311 8.06 6.12111 8.948 5.73711 9.98C5.37711 11.012 5.19711 12.152 5.19711 13.4C5.19711 14.864 5.40111 16.136 5.80911 17.216C6.24111 18.296 6.82911 19.196 7.57311 19.916C8.31711 20.636 9.19311 21.176 10.2011 21.536C11.2091 21.872 12.3011 22.04 13.4771 22.04C14.1251 22.04 14.7731 21.98 15.4211 21.86C16.0691 21.74 16.6931 21.524 17.2931 21.212C17.7971 20.972 18.2891 20.888 18.7691 20.96C19.2731 21.032 19.6931 21.284 20.0291 21.716C20.5091 22.316 20.6771 22.94 20.5331 23.588C20.4131 24.212 20.0531 24.668 19.4531 24.956C18.8291 25.268 18.1811 25.532 17.5091 25.748C16.8611 25.94 16.2011 26.084 15.5291 26.18C14.8571 26.3 14.1731 26.36 13.4771 26.36C11.7491 26.36 10.1051 26.084 8.54511 25.532C7.00911 24.98 5.62911 24.164 4.40511 23.084C3.20511 22.004 2.25711 20.66 1.56111 19.052C0.86511 17.42 0.51711 15.536 0.51711 13.4C0.51711 11.552 0.82911 9.848 1.45311 8.288C2.10111 6.728 3.00111 5.384 4.15311 4.256C5.32911 3.104 6.70911 2.216 8.29311 1.592C9.87711 0.943999 11.6051 0.619998 13.4771 0.619998C14.5331 0.619998 15.5651 0.739998 16.5731 0.979998C17.5811 1.22 18.5291 1.568 19.4171 2.024ZM52.1394 0.692C52.6914 0.692 53.2194 0.907999 53.7234 1.34C54.2274 1.748 54.4794 2.312 54.4794 3.032C54.4794 3.248 54.4434 3.488 54.3714 3.752L47.2794 24.632C47.1354 25.064 46.8714 25.4 46.4874 25.64C46.1274 25.856 45.7434 25.976 45.3354 26C44.9274 26 44.5194 25.88 44.1114 25.64C43.7274 25.4 43.4274 25.052 43.2114 24.596L37.8834 12.5L38.2074 12.716L32.9514 24.596C32.7354 25.052 32.4234 25.4 32.0154 25.64C31.6314 25.88 31.2354 26 30.8274 26C30.4434 25.976 30.0594 25.856 29.6754 25.64C29.2914 25.4 29.0274 25.064 28.8834 24.632L21.7914 3.752C21.7194 3.488 21.6834 3.248 21.6834 3.032C21.6834 2.312 21.9354 1.748 22.4394 1.34C22.9674 0.907999 23.5074 0.692 24.0594 0.692C24.5154 0.692 24.9354 0.812 25.3194 1.052C25.7274 1.292 26.0034 1.64 26.1474 2.096L31.8714 19.448L31.0794 19.412L36.1914 7.136C36.3834 6.704 36.6594 6.368 37.0194 6.128C37.3794 5.864 37.7874 5.744 38.2434 5.768C38.6994 5.744 39.1074 5.864 39.4674 6.128C39.8274 6.368 40.0914 6.704 40.2594 7.136L44.9394 18.872L44.3634 19.232L50.0154 2.096C50.1594 1.64 50.4354 1.292 50.8434 1.052C51.2514 0.812 51.6834 0.692 52.1394 0.692ZM74.6926 2.024C75.3166 2.336 75.6766 2.828 75.7726 3.5C75.8926 4.172 75.7246 4.784 75.2686 5.336C74.9566 5.768 74.5486 6.008 74.0446 6.056C73.5646 6.104 73.0726 6.008 72.5686 5.768C71.9926 5.504 71.3806 5.3 70.7326 5.156C70.1086 5.012 69.4486 4.94 68.7526 4.94C67.4566 4.94 66.2926 5.144 65.2606 5.552C64.2526 5.96 63.3886 6.548 62.6686 7.316C61.9486 8.06 61.3966 8.948 61.0126 9.98C60.6526 11.012 60.4726 12.152 60.4726 13.4C60.4726 14.864 60.6766 16.136 61.0846 17.216C61.5166 18.296 62.1046 19.196 62.8486 19.916C63.5926 20.636 64.4686 21.176 65.4766 21.536C66.4846 21.872 67.5766 22.04 68.7526 22.04C69.4006 22.04 70.0486 21.98 70.6966 21.86C71.3446 21.74 71.9686 21.524 72.5686 21.212C73.0726 20.972 73.5646 20.888 74.0446 20.96C74.5486 21.032 74.9686 21.284 75.3046 21.716C75.7846 22.316 75.9526 22.94 75.8086 23.588C75.6886 24.212 75.3286 24.668 74.7286 24.956C74.1046 25.268 73.4566 25.532 72.7846 25.748C72.1366 25.94 71.4766 26.084 70.8046 26.18C70.1326 26.3 69.4486 26.36 68.7526 26.36C67.0246 26.36 65.3806 26.084 63.8206 25.532C62.2846 24.98 60.9046 24.164 59.6806 23.084C58.4806 22.004 57.5326 20.66 56.8366 19.052C56.1406 17.42 55.7926 15.536 55.7926 13.4C55.7926 11.552 56.1046 9.848 56.7286 8.288C57.3766 6.728 58.2766 5.384 59.4286 4.256C60.6046 3.104 61.9846 2.216 63.5686 1.592C65.1526 0.943999 66.8806 0.619998 68.7526 0.619998C69.8086 0.619998 70.8406 0.739998 71.8486 0.979998C72.8566 1.22 73.8046 1.568 74.6926 2.024Z" fill="white"/>
</svg>
